<?xml version="1.0" standalone="no"?>
<!DOCTYPE svg PUBLIC "-//W3C//DTD SVG 20010904//EN"
 "http://www.w3.org/TR/2001/REC-SVG-20010904/DTD/svg10.dtd">
<svg version="1.0" xmlns="http://www.w3.org/2000/svg"
 width="700.000000pt" height="700.000000pt" viewBox="0 0 700.000000 700.000000"
 preserveAspectRatio="xMidYMid meet">
<metadata>
Created by potrace 1.11, written by Peter Selinger 2001-2013
</metadata>
<g transform="translate(0.000000,700.000000) scale(0.100000,-0.100000)"
fill="#000000" stroke="none">
<path d="M3440 6558 c-55 -7 -256 -72 -275 -89 -5 -5 -15 -9 -22 -9 -7 0 -52
-15 -101 -34 -48 -19 -310 -118 -583 -220 -565 -211 -539 -200 -599 -240 -73
-47 -173 -168 -185 -222 -2 -11 -11 -39 -18 -64 -8 -25 -15 -48 -16 -52 0 -5
-1 -356 -1 -780 l0 -773 -293 -109 c-160 -60 -312 -117 -337 -127 -25 -10
-126 -48 -225 -85 -416 -155 -469 -175 -522 -202 -71 -34 -170 -132 -205 -203
-59 -116 -58 -101 -58 -975 0 -491 4 -822 10 -855 16 -84 72 -187 137 -253 55
-55 93 -76 803 -431 410 -204 767 -377 794 -384 69 -17 176 -15 242 4 31 9
385 180 785 381 l729 364 730 -365 c402 -201 757 -372 788 -380 71 -19 171
-21 237 -4 28 6 385 180 795 385 706 353 748 375 803 430 66 66 122 169 137
256 7 37 10 346 8 885 -4 933 4 847 -84 984 -47 75 -103 124 -189 166 -33 16
-354 140 -712 274 l-653 244 0 755 c-1 415 -3 773 -6 795 -17 133 -98 263
-211 338 -60 40 -79 48 -903 356 -644 241 -688 254 -800 239z m278 -539 c119
-45 262 -98 317 -119 111 -43 222 -84 594 -224 140 -53 256 -98 259 -101 8 -7
8 -7 -113 -55 -60 -23 -129 -51 -152 -61 -23 -11 -45 -19 -48 -19 -3 0 -25 -9
-48 -19 -38 -17 -216 -89 -752 -306 -104 -42 -208 -84 -230 -94 -38 -18 -42
-18 -85 -1 -83 32 -425 170 -445 180 -18 9 -241 99 -730 295 -188 76 -181 73
-172 81 6 6 361 142 447 171 25 8 59 21 75 28 17 7 75 30 130 50 55 19 107 39
115 42 8 3 20 7 25 8 6 2 33 12 60 23 42 17 524 200 533 201 1 1 100 -36 220
-80z m1177 -1450 c1 -266 -1 -489 -3 -496 -2 -6 -27 -20 -55 -31 -83 -32 -453
-171 -552 -207 -49 -18 -137 -51 -195 -73 -58 -22 -150 -57 -205 -77 -55 -20
-110 -41 -123 -46 -13 -5 -24 -9 -26 -9 -2 0 -3 209 -2 465 l1 466 195 85
c107 46 209 91 225 98 17 8 77 34 135 59 95 41 247 107 325 142 144 65 262
113 270 111 6 -2 10 -177 10 -487z m-2425 -1139 c327 -123 624 -234 660 -247
36 -14 77 -29 93 -35 15 -5 27 -13 27 -16 0 -4 -28 -18 -63 -31 -66 -25 -382
-153 -432 -175 -16 -8 -52 -22 -80 -31 -27 -10 -54 -22 -60 -25 -5 -4 -21 -11
-35 -15 -14 -4 -43 -16 -65 -25 -22 -10 -132 -55 -245 -100 -113 -45 -212 -85
-222 -90 -42 -23 -185 -74 -198 -71 -8 1 -34 11 -57 22 -24 10 -46 19 -49 19
-3 0 -20 6 -37 14 -36 16 -338 140 -407 166 -25 10 -94 38 -155 63 -60 24
-207 84 -325 131 -118 48 -234 96 -256 106 -23 11 -54 22 -68 26 -53 13 -50
14 219 114 77 29 149 56 160 60 11 5 155 59 320 120 165 61 316 117 335 125
19 8 64 25 100 39 36 13 101 38 145 55 44 16 85 29 90 27 6 -2 278 -104 605
-226z m2817 174 c81 -31 164 -61 183 -68 36 -13 1011 -379 1043 -391 26 -10
21 -20 -15 -32 -31 -10 -278 -110 -343 -138 -16 -7 -77 -32 -135 -55 -58 -23
-118 -48 -135 -55 -16 -8 -61 -26 -100 -41 -38 -14 -90 -35 -115 -46 -25 -10
-54 -23 -65 -28 -11 -4 -38 -15 -60 -23 -22 -9 -122 -49 -222 -90 l-181 -74
-454 183 c-249 101 -462 188 -473 193 -11 5 -67 28 -125 51 -58 23 -118 47
-135 55 -16 7 -69 28 -117 46 -48 19 -88 37 -88 40 0 3 24 15 53 27 63 25 476
180 532 199 22 7 56 20 75 28 19 8 152 58 295 111 314 118 430 161 432 163 0
1 68 -24 150 -55z m-2033 -1490 c1 -278 -1 -509 -4 -514 -5 -7 -1145 -580
-1155 -580 -3 0 -5 242 -5 538 l0 539 293 133 c160 74 328 150 372 171 44 20
107 49 140 64 33 15 85 38 115 52 151 68 206 94 220 102 8 5 17 7 19 5 3 -2 5
-232 5 -510z m3281 -5 l0 -512 -575 -288 c-316 -158 -578 -288 -581 -288 -3
-1 -5 241 -5 536 l1 538 35 18 c38 19 179 84 335 154 55 25 142 65 194 89 51
24 95 44 96 44 2 0 51 23 109 50 58 28 108 50 110 50 3 0 56 24 118 53 125 59
138 65 153 66 7 1 10 -174 10 -510z"/>
</g>
</svg>
